<?xml version="1.0" encoding="UTF-8" standalone="no"?>
<svg
   id="svg"
   version="1.1"
   width="400"
   height="224.39893143365984"
   viewBox="0, 0, 400,224.39893143365984"
   sodipodi:docname="emberlogo.svg"
   inkscape:version="1.1 (c68e22c387, 2021-05-23)"
   xmlns:inkscape="http://www.inkscape.org/namespaces/inkscape"
   xmlns:sodipodi="http://sodipodi.sourceforge.net/DTD/sodipodi-0.dtd"
   xmlns="http://www.w3.org/2000/svg"
   xmlns:svg="http://www.w3.org/2000/svg">
  <defs
     id="defs8" />
  <sodipodi:namedview
     id="namedview6"
     pagecolor="#505050"
     bordercolor="#eeeeee"
     borderopacity="1"
     inkscape:pageshadow="0"
     inkscape:pageopacity="0"
     inkscape:pagecheckerboard="0"
     showgrid="false"
     showguides="true"
     inkscape:guide-bbox="true"
     width="300px"
     inkscape:zoom="1.0960155"
     inkscape:cx="224.90558"
     inkscape:cy="81.659428"
     inkscape:window-width="1920"
     inkscape:window-height="1017"
     inkscape:window-x="-8"
     inkscape:window-y="-8"
     inkscape:window-maximized="1"
     inkscape:current-layer="svgg">
    <sodipodi:guide
       position="201.93548,118.59248"
       orientation="1,0"
       id="guide1004" />
    <sodipodi:guide
       position="201.93548,118.59248"
       orientation="0,-1"
       id="guide1006" />
  </sodipodi:namedview>
  <g
     id="svgg">
    <path
       id="path0"
       d="m 111.04039,72.508741 c -1.35049,3.250454 -4.21434,7.263541 -8.2208,11.521569 -18.859264,20.04822 -21.605274,24.68491 -21.642354,36.55605 -0.0821,25.45681 28.724504,41.66936 48.772724,27.44813 6.64522,-4.71481 9.23367,-14.27949 5.74092,-21.20673 -1.38757,-2.75395 -1.81522,-2.90092 -2.79896,-0.96653 -1.20883,2.37396 -4.37984,6.59491 -6.16594,8.20624 -12.79924,11.55202 -32.430394,2.64538 -31.683654,-14.37216 0.2648,-6.04015 1.49878,-8.12812 10.623894,-17.98147 9.38858,-10.13665 10.67155,-12.326569 10.92973,-18.667272 0.18272,-4.480463 -0.7057,-7.434338 -3.16836,-10.532531 -1.52924,-1.923792 -1.59014,-1.923792 -2.3872,-0.0053 m 38.83068,20.759214 c -0.66333,0.386613 -0.82221,46.214729 -0.16285,46.874089 0.25024,0.25157 1.94762,0.35616 5.73563,0.35616 3.788,0 5.48406,-0.10459 5.73562,-0.35616 0.26481,-0.2648 0.35749,-3.32989 0.35749,-11.95452 0,-11.11508 0.0212,-11.56657 0.51769,-10.8622 0.28598,0.40383 2.59506,4.14548 5.1332,8.31347 6.51018,10.69274 5.0061,11.11378 14.08221,-3.93894 l 3.00154,-4.9796 0.0781,11.34943 c 0.0688,10.04 0.13372,11.41168 0.56668,11.88965 0.76925,0.85134 11.22101,0.81956 11.67912,-0.0357 0.63685,-1.19029 0.4025,-45.906237 -0.24362,-46.491451 -0.48194,-0.4356 -1.24325,-0.488561 -5.99778,-0.418388 l -5.44699,0.08209 -5.68929,9.294579 c -3.12865,5.11201 -5.82169,9.42702 -5.9819,9.58722 -0.1933,0.19331 -2.26406,-2.93666 -6.04942,-9.145 -3.16571,-5.192786 -5.89848,-9.538197 -6.07457,-9.658683 -0.49253,-0.337623 -10.64507,-0.252886 -11.24088,0.094 m 55.22595,0.145642 c -0.61567,0.615666 -0.72292,46.115421 -0.1099,46.728441 0.57992,0.57992 21.85153,0.49651 24.17385,-0.0953 10.84632,-2.76189 14.91502,-15.22086 7.48995,-22.9319 l -1.19691,-1.24325 1.03273,-1.58088 c 5.38344,-8.23275 0.81956,-18.602425 -9.17939,-20.861193 -3.12865,-0.705699 -21.50728,-0.718939 -22.21033,-0.01589 m 41.03781,0.07679 c -0.59316,0.655387 -0.77058,45.336913 -0.18404,46.433193 0.2979,0.55609 0.77852,0.57462 14.99843,0.57462 17.34855,0 15.3056,0.80633 15.3056,-6.03618 0,-6.3023 1.04332,-5.6681 -9.62955,-5.85081 l -8.64846,-0.14962 -0.0861,-2.62949 c -0.12181,-3.71651 -0.71497,-3.4623 8.08707,-3.4623 5.42449,0 7.58131,-0.098 7.83949,-0.35748 0.5018,-0.50048 0.5018,-10.37628 0,-10.87676 -0.25818,-0.25818 -2.41103,-0.35616 -7.81565,-0.35616 -8.62993,0 -8.17314,0.15888 -8.17314,-2.85859 0,-3.3855 -0.85002,-3.08627 8.75305,-3.08627 7.75211,0 8.43,-0.041 8.88414,-0.54285 0.77322,-0.85531 0.72953,-10.145916 -0.0516,-10.85294 -0.87914,-0.795732 -28.55633,-0.746744 -29.27924,0.05164 m 36.55602,0 c -0.63817,0.704375 -0.76925,46.01745 -0.13637,46.65165 0.25156,0.25157 1.94895,0.35616 5.73695,0.35616 3.78668,0 5.48407,-0.10459 5.73563,-0.35616 0.25553,-0.25553 0.35616,-2.22037 0.35616,-6.96034 0,-7.89377 -0.0887,-7.54291 1.92776,-7.54291 1.92247,0 1.40875,-0.64082 6.22154,7.7627 l 3.97867,6.94842 5.86008,0.0808 c 8.21418,0.11254 8.01161,0.77587 2.61361,-8.52798 -2.23626,-3.8542 -4.23553,-7.33238 -4.4434,-7.72959 -0.3588,-0.68849 -0.25818,-0.83545 2.08268,-3.02537 9.72753,-9.10126 5.48671,-24.666405 -7.55747,-27.740763 -3.12997,-0.737476 -21.6953,-0.668627 -22.37584,0.08341 M 122.73936,97.42413 c -0.14432,0.23435 -0.75734,1.429935 -1.35977,2.65597 -1.55836,3.16572 -3.42787,5.60058 -8.62462,11.22636 -6.82132,7.38667 -7.66472,10.56164 -3.78403,14.2424 4.19977,3.98661 9.35945,1.8139 15.52406,-6.53399 2.89297,-3.91908 4.13622,-9.84405 2.99095,-14.26232 -0.89901,-3.46892 -4.08723,-8.391604 -4.74659,-7.32842 m 101.79548,7.50186 c 1.33858,0.46076 1.84833,1.45509 1.69209,3.30739 -0.19463,2.3356 -0.64479,2.54612 -5.43243,2.54612 h -3.97998 v -2.9473 c 0,-2.08002 0.10989,-2.99227 0.37205,-3.09819 0.74277,-0.29923 6.34202,-0.15358 7.34827,0.19198 m 78.96552,0.38264 c 3.05847,2.26671 2.97109,6.5367 -0.17742,8.65777 -1.30548,0.88047 -8.43662,1.0473 -8.75968,0.20655 -0.31643,-0.82751 -0.19727,-8.45387 0.143,-9.0894 0.48591,-0.90695 7.5098,-0.72821 8.7941,0.22508 m -77.17545,17.14204 c 1.89864,0.94402 2.21772,3.98925 0.58786,5.61779 l -0.85399,0.85531 -4.54798,-0.0821 -4.54667,-0.0821 -0.0861,-2.95123 c -0.0477,-1.62324 -0.0185,-3.12732 0.0649,-3.34314 0.20654,-0.53755 8.30421,-0.55079 9.38196,-0.0146"
       stroke="none"
       fill="#999999"
       fill-rule="evenodd"
       sodipodi:nodetypes="ccccccccccccccssscccccccccccsccccsccccccccsscccsccssscscccsssscccscccccccccccccscsccccccccccccccc"
       style="stroke-width:1.32401" />
  </g>
</svg>
